<svg xmlns="http://www.w3.org/2000/svg" xmlns:xlink="http://www.w3.org/1999/xlink"><symbol id="menu-open-grey"><rect width="20" height="2" rx="1"/><rect y="6" width="20" height="2" rx="1"/><rect x="10" y="12" width="10" height="2" rx="1"/></symbol><symbol id="modal-close"><rect width="20.212" height="2.021" rx="1.011" transform="scale(.99137 1.00855) rotate(45 .54 1.797)"/><rect width="20.212" height="2.021" rx="1.011" transform="matrix(.701 -.71315 .701 .71315 .415 14.414)"/></symbol><symbol id="phone"><path d="M6.51 3.428L4.57 1.35c-.18-.193-.499-.204-.713-.026L2.326 2.598C.388 4.213 2.921 7.668 4.87 9.76c1.937 2.078 5.273 4.918 7.212 3.304l1.531-1.276c.214-.178.242-.479.062-.672l-1.938-2.079c-.18-.193-.499-.205-.713-.026l-1.531 1.275s-.694-.043-2.676-2.132c-1.982-2.089-1.9-2.777-1.9-2.777L6.447 4.1c.214-.179.242-.48.062-.673z" stroke-width="1.5" stroke-linecap="round" stroke-linejoin="round"/></symbol></svg>