<svg width="50" height="61" fill="none" xmlns="http://www.w3.org/2000/svg"><path d="M25 .2C11.595.2.689 11.24.689 24.81c0 7.916 3.728 15.126 9.69 19.671 4.42 3.37 9.125 6.764 11.586 11.748l1.482 3c.294.595.895.971 1.553.971.658 0 1.259-.376 1.553-.972l1.481-2.998c2.462-4.984 7.167-8.378 11.587-11.748 5.962-4.545 9.69-11.756 9.69-19.672C49.311 11.24 38.405.2 25 .2zm0 31.64c-3.83 0-6.946-3.153-6.946-7.03 0-3.878 3.116-7.032 6.946-7.032 3.83 0 6.946 3.154 6.946 7.032 0 3.877-3.116 7.03-6.946 7.03z" fill="#BBE0F2"/></svg>