<svg width="300" height="300" fill="none" xmlns="http://www.w3.org/2000/svg"><path d="M.52 147.544a.5.5 0 00-.491-.508c.025-1.304.067-2.604.125-3.9a.5.5 0 00.523-.475c.08-1.637.185-3.267.316-4.89a.5.5 0 00-.457-.539c.11-1.301.236-2.597.378-3.888a.5.5 0 00.553-.44c.185-1.625.396-3.241.632-4.849a.5.5 0 00-.42-.567c.194-1.293.405-2.581.632-3.862a.5.5 0 00.58-.403c.291-1.608.608-3.207.95-4.797a.5.5 0 00-.384-.594c.279-1.275.574-2.544.885-3.807a.5.5 0 00.605-.364c.396-1.586.818-3.163 1.264-4.729a.5.5 0 00-.343-.618c.362-1.253.74-2.499 1.133-3.739a.5.5 0 00.628-.323c.5-1.556 1.024-3.1 1.572-4.633a.5.5 0 00-.301-.639c.444-1.227.903-2.447 1.378-3.66a.5.5 0 00.648-.281 145.43 145.43 0 011.874-4.518.5.5 0 00-.26-.657 149.007 149.007 0 011.616-3.56.5.5 0 00.665-.238c.7-1.476 1.423-2.939 2.168-4.387a.5.5 0 00-.215-.673c.6-1.158 1.216-2.306 1.845-3.445a.5.5 0 00.68-.194c.794-1.426 1.61-2.838 2.45-4.235a.5.5 0 00-.17-.686 149.656 149.656 0 012.067-3.318.5.5 0 00.69-.15c.887-1.37 1.794-2.725 2.723-4.064a.5.5 0 00-.126-.696 150.372 150.372 0 012.28-3.175.5.5 0 00.698-.104c.973-1.31 1.968-2.603 2.982-3.88a.5.5 0 00-.08-.702 150.587 150.587 0 012.482-3.02.5.5 0 00.704-.058 150.071 150.071 0 013.227-3.677.5.5 0 00-.034-.706c.88-.962 1.77-1.913 2.673-2.852a.5.5 0 00.707-.013 150.468 150.468 0 013.46-3.46.5.5 0 00.012-.706c.939-.903 1.89-1.794 2.852-2.673a.5.5 0 00.706.034A150.466 150.466 0 0153.279 36a.5.5 0 00.058-.704c.996-.84 2.003-1.667 3.02-2.482a.5.5 0 00.702.08 150.107 150.107 0 013.88-2.982.5.5 0 00.104-.699 150.372 150.372 0 013.175-2.279.5.5 0 00.696.126c1.339-.93 2.694-1.837 4.065-2.722a.5.5 0 00.149-.69 149.656 149.656 0 013.319-2.069.5.5 0 00.685.17 149.156 149.156 0 014.235-2.45.5.5 0 00.194-.678c1.139-.63 2.287-1.245 3.445-1.846a.5.5 0 00.673.215 148.704 148.704 0 014.387-2.168.5.5 0 00.238-.665 149.187 149.187 0 013.56-1.615.5.5 0 00.657.259c1.494-.649 3-1.273 4.518-1.874a.5.5 0 00.281-.648c1.213-.475 2.433-.934 3.66-1.378a.5.5 0 00.64.301 148.68 148.68 0 014.632-1.572.5.5 0 00.323-.628c1.24-.393 2.486-.771 3.739-1.133a.5.5 0 00.618.343c1.566-.446 3.143-.868 4.729-1.264a.5.5 0 00.364-.605 150.28 150.28 0 013.807-.885.5.5 0 00.594.383c1.59-.341 3.189-.658 4.797-.949a.5.5 0 00.403-.58 153.05 153.05 0 013.862-.633.5.5 0 00.567.421c1.608-.236 3.225-.447 4.849-.632a.5.5 0 00.44-.553c1.291-.142 2.587-.269 3.888-.378a.5.5 0 00.539.457c1.623-.131 3.253-.237 4.89-.316a.5.5 0 00.475-.523c1.296-.058 2.596-.1 3.9-.125a.5.5 0 00.508.49 152.534 152.534 0 014.912 0 .5.5 0 00.508-.49c1.304.025 2.604.067 3.9.125a.5.5 0 00.475.523c1.637.08 3.267.185 4.89.316a.5.5 0 00.539-.457c1.301.11 2.597.236 3.888.378a.5.5 0 00.44.553c1.625.185 3.241.396 4.849.632a.5.5 0 00.567-.42 149.6 149.6 0 013.862.632.5.5 0 00.403.58c1.608.291 3.207.608 4.797.95a.5.5 0 00.594-.384c1.275.279 2.544.574 3.807.885a.5.5 0 00.364.605c1.586.396 3.163.818 4.729 1.264a.5.5 0 00.618-.343c1.253.362 2.499.74 3.739 1.133a.5.5 0 00.323.628c1.556.5 3.1 1.024 4.633 1.572a.5.5 0 00.639-.301c1.227.444 2.447.903 3.66 1.378a.5.5 0 00.281.648c1.518.6 3.024 1.225 4.518 1.874a.5.5 0 00.657-.26c1.195.524 2.381 1.063 3.56 1.616a.5.5 0 00.238.665c1.476.7 2.938 1.423 4.387 2.168a.5.5 0 00.673-.215c1.158.6 2.306 1.216 3.445 1.845a.5.5 0 00.194.68c1.426.794 2.838 1.61 4.235 2.45a.5.5 0 00.685-.17c1.116.675 2.223 1.364 3.319 2.067a.5.5 0 00.149.69c1.371.887 2.726 1.794 4.065 2.723a.501.501 0 00.696-.126 151.93 151.93 0 013.175 2.28.5.5 0 00.104.698c1.31.973 2.603 1.968 3.88 2.982a.5.5 0 00.702-.08c1.017.815 2.024 1.642 3.02 2.482a.5.5 0 00.058.704 151.192 151.192 0 013.677 3.227.5.5 0 00.706-.034c.962.88 1.913 1.77 2.853 2.673a.499.499 0 00.012.707 151.451 151.451 0 013.459 3.46.5.5 0 00.707.012c.903.939 1.794 1.89 2.673 2.852a.5.5 0 00-.034.706 151.316 151.316 0 013.227 3.677.5.5 0 00.704.058c.84.996 1.667 2.003 2.482 3.02a.5.5 0 00-.08.702 153.318 153.318 0 012.982 3.88.499.499 0 00.698.104 150.048 150.048 0 012.28 3.175.5.5 0 00-.126.696 149.033 149.033 0 012.722 4.065.5.5 0 00.691.149 153.878 153.878 0 012.068 3.319.5.5 0 00-.171.685 148.918 148.918 0 012.45 4.235.5.5 0 00.679.194c.63 1.139 1.245 2.287 1.846 3.445a.5.5 0 00-.215.673 149.959 149.959 0 012.168 4.387.5.5 0 00.665.238 149.178 149.178 0 011.615 3.56.5.5 0 00-.259.657c.649 1.494 1.273 3 1.874 4.518a.5.5 0 00.648.281c.475 1.213.934 2.433 1.378 3.66a.5.5 0 00-.301.64 151.62 151.62 0 011.572 4.632.499.499 0 00.628.323c.393 1.24.771 2.486 1.133 3.739a.5.5 0 00-.343.618c.446 1.566.868 3.143 1.264 4.729a.5.5 0 00.605.364c.311 1.263.606 2.532.885 3.807a.5.5 0 00-.383.594c.341 1.59.658 3.189.949 4.797a.5.5 0 00.58.403c.227 1.282.438 2.569.633 3.862a.5.5 0 00-.421.567c.236 1.608.447 3.225.632 4.849a.5.5 0 00.553.44c.142 1.291.269 2.587.378 3.888a.5.5 0 00-.457.539c.131 1.623.237 3.253.316 4.89a.5.5 0 00.523.475c.058 1.296.1 2.596.125 3.9a.5.5 0 00-.491.508 154.393 154.393 0 010 4.912.5.5 0 00.491.508 152.693 152.693 0 01-.125 3.9.5.5 0 00-.523.475 151.616 151.616 0 01-.316 4.89.5.5 0 00.457.539 150.437 150.437 0 01-.378 3.888.5.5 0 00-.553.44 151.058 151.058 0 01-.632 4.849.5.5 0 00.421.567 153.05 153.05 0 01-.633 3.862.5.5 0 00-.58.403 151.707 151.707 0 01-.949 4.797.5.5 0 00.383.594 150.28 150.28 0 01-.885 3.807.5.5 0 00-.605.364 149.388 149.388 0 01-1.264 4.729.5.5 0 00.343.618c-.362 1.253-.74 2.499-1.133 3.739a.499.499 0 00-.628.323c-.5 1.556-1.024 3.1-1.572 4.633a.5.5 0 00.301.639 150.196 150.196 0 01-1.378 3.66.5.5 0 00-.648.281 148.98 148.98 0 01-1.874 4.518.5.5 0 00.259.657 150.136 150.136 0 01-1.615 3.56.499.499 0 00-.665.238c-.7 1.476-1.422 2.938-2.168 4.387a.499.499 0 00.215.673 147.447 147.447 0 01-1.846 3.445.5.5 0 00-.679.194 149.229 149.229 0 01-2.45 4.235.499.499 0 00.171.685 152.205 152.205 0 01-2.068 3.319.5.5 0 00-.691.149 149.033 149.033 0 01-2.722 4.065.5.5 0 00.126.696 151.598 151.598 0 01-2.28 3.175.499.499 0 00-.698.104 154.034 154.034 0 01-2.982 3.88.5.5 0 00.08.702 156.022 156.022 0 01-2.482 3.02.5.5 0 00-.704.058 152.264 152.264 0 01-3.227 3.677.5.5 0 00.034.706c-.879.962-1.77 1.913-2.673 2.853a.5.5 0 00-.707.012 152.448 152.448 0 01-3.459 3.459.5.5 0 00-.012.707c-.94.903-1.891 1.794-2.853 2.673a.5.5 0 00-.706-.034 152.264 152.264 0 01-3.677 3.227.5.5 0 00-.058.704c-.996.84-2.003 1.667-3.02 2.482a.5.5 0 00-.702-.08 154.034 154.034 0 01-3.88 2.982.499.499 0 00-.104.698 151.598 151.598 0 01-3.175 2.28.5.5 0 00-.696-.126 149.033 149.033 0 01-4.065 2.722.5.5 0 00-.149.691 152.205 152.205 0 01-3.319 2.068.499.499 0 00-.685-.171 149.229 149.229 0 01-4.235 2.45.5.5 0 00-.194.679c-1.139.63-2.287 1.245-3.445 1.846a.499.499 0 00-.673-.215 150.044 150.044 0 01-4.387 2.168.499.499 0 00-.238.665 150.136 150.136 0 01-3.56 1.615.5.5 0 00-.657-.259c-1.494.649-3 1.273-4.518 1.874a.5.5 0 00-.281.648c-1.213.475-2.433.934-3.66 1.378a.5.5 0 00-.639-.301 151.915 151.915 0 01-4.633 1.572.499.499 0 00-.323.628c-1.24.393-2.486.771-3.739 1.133a.5.5 0 00-.618-.343c-1.566.446-3.143.868-4.729 1.264a.5.5 0 00-.364.605 150.28 150.28 0 01-3.807.885.5.5 0 00-.594-.383c-1.59.341-3.189.658-4.797.949a.5.5 0 00-.403.58 153.05 153.05 0 01-3.862.633.5.5 0 00-.567-.421c-1.608.236-3.225.447-4.849.632a.5.5 0 00-.44.553c-1.291.142-2.587.269-3.888.378a.5.5 0 00-.539-.457c-1.623.131-3.253.237-4.89.316a.5.5 0 00-.475.523c-1.296.058-2.596.1-3.9.125a.5.5 0 00-.508-.491 154.393 154.393 0 01-4.912 0 .5.5 0 00-.508.491 152.693 152.693 0 01-3.9-.125.5.5 0 00-.475-.523 151.616 151.616 0 01-4.89-.316.5.5 0 00-.539.457 150.437 150.437 0 01-3.888-.378.5.5 0 00-.44-.553 151.058 151.058 0 01-4.849-.632.5.5 0 00-.567.421 152.312 152.312 0 01-3.862-.633.5.5 0 00-.403-.58 151.707 151.707 0 01-4.797-.949.5.5 0 00-.594.383 150.28 150.28 0 01-3.807-.885.5.5 0 00-.364-.605 149.388 149.388 0 01-4.729-1.264.5.5 0 00-.618.343c-1.253-.362-2.499-.74-3.739-1.133a.499.499 0 00-.323-.628c-1.556-.5-3.1-1.024-4.633-1.572a.5.5 0 00-.639.301 148.5 148.5 0 01-3.66-1.378.5.5 0 00-.281-.648 148.015 148.015 0 01-4.518-1.874.5.5 0 00-.657.259 148.998 148.998 0 01-3.56-1.615.5.5 0 00-.238-.665c-1.476-.7-2.939-1.422-4.387-2.168a.5.5 0 00-.673.215 149.705 149.705 0 01-3.445-1.846.5.5 0 00-.194-.679 148.918 148.918 0 01-4.235-2.45.5.5 0 00-.686.171 153.878 153.878 0 01-3.318-2.068.5.5 0 00-.15-.691 150.136 150.136 0 01-4.064-2.722.5.5 0 00-.696.126 150.048 150.048 0 01-3.175-2.28.499.499 0 00-.104-.698 153.139 153.139 0 01-3.88-2.982.5.5 0 00-.702.08 153.357 153.357 0 01-3.02-2.482.5.5 0 00-.058-.704 151.127 151.127 0 01-3.677-3.227.5.5 0 00-.706.034c-.962-.879-1.913-1.77-2.852-2.673a.5.5 0 00-.013-.707 151.451 151.451 0 01-3.46-3.459.499.499 0 00-.706-.012c-.903-.94-1.794-1.891-2.673-2.853a.5.5 0 00.034-.706A151.403 151.403 0 0136 246.721a.5.5 0 00-.704-.058c-.84-.996-1.667-2.003-2.482-3.02a.5.5 0 00.08-.702 150.793 150.793 0 01-2.982-3.88.5.5 0 00-.699-.104 151.93 151.93 0 01-2.279-3.175.5.5 0 00.126-.696 148.793 148.793 0 01-2.722-4.065.5.5 0 00-.69-.149 148.073 148.073 0 01-2.069-3.319.5.5 0 00.17-.685 149.468 149.468 0 01-2.45-4.235.5.5 0 00-.678-.194 147.42 147.42 0 01-1.846-3.445.5.5 0 00.215-.673 148.788 148.788 0 01-2.168-4.387.5.5 0 00-.665-.238 150.145 150.145 0 01-1.615-3.56.5.5 0 00.259-.657c-.649-1.494-1.273-3-1.874-4.518a.5.5 0 00-.648-.281 150.453 150.453 0 01-1.378-3.66.5.5 0 00.301-.639 148.964 148.964 0 01-1.572-4.633.5.5 0 00-.628-.323c-.393-1.24-.771-2.486-1.133-3.739a.5.5 0 00.343-.618 148.745 148.745 0 01-1.264-4.729.5.5 0 00-.605-.364 150.28 150.28 0 01-.885-3.807.5.5 0 00.383-.594c-.341-1.59-.658-3.189-.949-4.797a.5.5 0 00-.58-.403 149.556 149.556 0 01-.633-3.862.5.5 0 00.421-.567 149.626 149.626 0 01-.632-4.849.5.5 0 00-.553-.44 150.494 150.494 0 01-.378-3.888.5.5 0 00.457-.539 150.908 150.908 0 01-.316-4.89.5.5 0 00-.523-.475c-.058-1.296-.1-2.596-.125-3.9a.5.5 0 00.49-.508 152.534 152.534 0 010-4.912z" stroke="#C19677" stroke-miterlimit="3.864" stroke-linecap="round" stroke-linejoin="round" stroke-dasharray="5 5"/></svg>