<svg width="43" height="43" fill="none" xmlns="http://www.w3.org/2000/svg"><path d="M21.887 42.494c11.589 0 20.983-9.395 20.983-20.983C42.87 9.92 33.476.527 21.887.527 10.3.527.904 9.922.904 21.511c0 11.588 9.395 20.983 20.983 20.983z" fill="url(#paint0_linear)"/><path d="M18.04 31.128c-.68 0-.564-.256-.798-.904l-2-6.579 15.388-9.128" fill="#C8DAEA"/><path d="M18.04 31.128c.525 0 .757-.24 1.05-.525l2.797-2.72-3.49-2.105" fill="#A9C9DD"/><path d="M18.397 25.78l8.456 6.247c.965.532 1.662.257 1.902-.896l3.442-16.22c.353-1.413-.538-2.054-1.462-1.635L10.523 21.07c-1.38.553-1.371 1.323-.251 1.666l5.187 1.619 12.008-7.576c.567-.344 1.087-.16.66.22" fill="url(#paint1_linear)"/><defs><linearGradient id="paint0_linear" x1="16.643" y1="2.277" x2="6.152" y2="26.756" gradientUnits="userSpaceOnUse"><stop stop-color="#37AEE2"/><stop offset="1" stop-color="#1E96C8"/></linearGradient><linearGradient id="paint1_linear" x1="19.261" y1="22.8" x2="21.503" y2="30.052" gradientUnits="userSpaceOnUse"><stop stop-color="#EFF7FC"/><stop offset="1" stop-color="#fff"/></linearGradient></defs></svg>