<svg width="43" height="42" fill="none" xmlns="http://www.w3.org/2000/svg"><path d="M21.887.022c11.589 0 20.983 9.394 20.983 20.983s-9.394 20.983-20.983 20.983C10.3 41.988.904 32.594.904 21.005S10.299.022 21.887.022z" fill="#7F4DA0"/><path d="M26.542 18.794c-.086-.7-.302-1.25-.684-1.737-.496-.627-1.13-1.003-2.07-1.225-.611-.149-.858-.132-1.08.07-.206.19-.246.57-.089.815.111.179.239.243.595.312.473.087.8.2 1.098.37.631.365.925.936.957 1.86.015.434.052.567.204.721a.65.65 0 00.992-.11c.078-.127.09-.182.098-.477a4.703 4.703 0 00-.021-.6z" fill="#fff"/><path d="M29.016 19.583c-.125-2.145-.964-3.87-2.466-5.085a6.95 6.95 0 00-2.99-1.38c-.41-.082-1.166-.148-1.296-.11a.796.796 0 00-.373.288c-.081.13-.1.42-.03.588.112.28.321.38.907.43.902.08 1.833.396 2.536.866a5.32 5.32 0 011.854 2.124c.357.738.576 1.801.57 2.754-.002.344.051.539.19.68.209.22.513.267.782.122.298-.157.368-.432.316-1.277zm2.564 8.38a2.34 2.34 0 00-.207-.416c-.434-.659-2.765-2.493-3.929-3.093-.664-.343-1.156-.457-1.521-.35-.393.11-.6.295-1.257 1.116-.265.33-.537.638-.61.687-.178.125-.53.225-.777.225-.575-.003-1.619-.378-2.42-.87-.624-.381-1.423-1.064-2.035-1.74-.723-.794-1.216-1.495-1.605-2.285-.502-1.016-.63-1.637-.42-2.091.052-.115.12-.236.152-.274.03-.035.354-.302.712-.593.703-.562.816-.69.947-1.075.165-.489.12-.988-.134-1.49-.196-.382-.71-1.214-1.081-1.752-.492-.707-1.718-2.219-1.963-2.423-.44-.361-1.005-.423-1.628-.18-.658.256-1.89 1.255-2.417 1.951-.475.631-.657 1.079-.685 1.668-.024.486.017.687.272 1.307 1.993 4.868 4.968 8.755 9.055 11.841 2.134 1.612 4.348 2.84 6.644 3.679 1.34.489 1.921.513 2.606.11.29-.173 1.006-.911 1.405-1.449.661-.894.905-1.307.974-1.636.048-.225.01-.617-.079-.867z" fill="#fff"/><path d="M31.534 20.076a9.77 9.77 0 00-.675-3.319c-.42-1.091-.846-1.804-1.65-2.767-.76-.903-1.35-1.42-2.287-1.993-1.306-.8-2.896-1.33-4.677-1.552-.608-.078-.745-.072-.932.052-.36.236-.356.823.006 1.055.12.074.227.1.713.165.746.1 1.225.195 1.795.35 2.232.61 3.948 1.857 5.096 3.709.96 1.543 1.359 3.086 1.302 5.057-.02.667-.005.784.096.944.196.298.71.357.974.11.164-.151.195-.265.227-.835.016-.297.02-.737.012-.976z" fill="#fff"/></svg>