<svg width="43" height="43" fill="none" xmlns="http://www.w3.org/2000/svg"><path d="M21.887 42.74c11.589 0 20.983-9.394 20.983-20.982 0-11.59-9.394-20.984-20.983-20.984C10.3.774.904 10.17.904 21.758c0 11.588 9.395 20.983 20.983 20.983z" fill="#25D366"/><path fill-rule="evenodd" clip-rule="evenodd" d="M22.579 33.432h-.005c-2.089 0-4.14-.524-5.963-1.519L9.997 33.65l1.77-6.466a12.454 12.454 0 01-1.666-6.238c.003-6.88 5.6-12.476 12.478-12.476 3.338.001 6.47 1.3 8.826 3.66a12.401 12.401 0 013.651 8.826c-.003 6.878-5.598 12.474-12.477 12.477zm-5.661-3.777l.378.224a10.356 10.356 0 005.279 1.446h.004c5.716 0 10.368-4.652 10.37-10.37a10.308 10.308 0 00-3.034-7.337 10.3 10.3 0 00-7.332-3.042c-5.72 0-10.373 4.652-10.375 10.37 0 1.96.547 3.868 1.586 5.519l.246.392-1.047 3.827 3.925-1.03zm11.52-6.013c.217.105.364.176.427.28.078.13.078.755-.182 1.483-.26.728-1.505 1.393-2.104 1.482-.538.08-1.217.114-1.964-.123a17.873 17.873 0 01-1.777-.657c-2.923-1.262-4.898-4.095-5.272-4.63a3.713 3.713 0 00-.054-.077l-.003-.004c-.164-.22-1.27-1.695-1.27-3.221 0-1.437.705-2.19 1.03-2.536l.061-.065c.286-.312.623-.39.831-.39a14.125 14.125 0 01.668.011c.181 0 .408-.002.631.535.086.206.212.512.344.835.269.653.565 1.375.618 1.48.078.156.13.338.026.546l-.044.089a1.77 1.77 0 01-.268.431c-.052.06-.106.126-.16.192-.107.13-.214.261-.308.354-.156.156-.318.324-.136.637.181.312.807 1.332 1.734 2.16a8.05 8.05 0 002.301 1.454c.086.037.155.067.206.092.312.157.494.13.675-.078.182-.207.78-.91.988-1.222.207-.312.415-.26.701-.156.286.104 1.819.858 2.13 1.014l.171.084z" fill="#FDFDFD"/></svg>