<svg width="22" height="24" fill="none" xmlns="http://www.w3.org/2000/svg"><path d="M19.684 8.553a.767.767 0 00-1.033.231.706.706 0 00.24.995c.818.49 1.306 1.338 1.306 2.266 0 .928-.488 1.775-1.307 2.267L6.584 21.697a2.835 2.835 0 01-2.815.068c-.895-.477-1.43-1.35-1.43-2.335V4.66c0-.984.535-1.857 1.43-2.335a2.833 2.833 0 012.815.069l7.164 4.299a.768.768 0 001.034-.23.706.706 0 00-.24-.996L7.378 1.17a4.365 4.365 0 00-4.338-.107C1.662 1.798.84 3.143.84 4.66v14.77c0 1.517.822 2.862 2.2 3.598.657.35 1.368.525 2.078.525.78 0 1.56-.211 2.26-.631l12.306-7.385c1.261-.757 2.014-2.062 2.014-3.492 0-1.43-.753-2.735-2.014-3.492z" fill="#353535"/></svg>