<svg width="50" height="61" viewBox="0 0 50 61" fill="none" xmlns="http://www.w3.org/2000/svg">
<path d="M25 0.200195C25 0.200195 25 0.200195 25 0.200195C11.5949 0.200195 0.68866 11.2401 0.68866 24.8096C0.68866 32.7259 4.41746 39.9361 10.3788 44.4812C14.799 47.8513 19.5036 51.2455 21.9652 56.2291L23.4466 59.2284C23.741 59.8239 24.342 60.2002 25 60.2002C25.6576 60.2002 26.259 59.8239 26.5529 59.2284L28.0343 56.2295C30.496 51.2459 35.2006 47.8519 39.6208 44.4818C45.5825 39.9367 49.3114 32.7263 49.3114 24.8096C49.3114 11.2401 38.4052 0.200195 25 0.200195C25 0.200195 25 0.200195 25 0.200195ZM25 31.8408C21.1697 31.8408 18.0539 28.6868 18.0539 24.8096C18.0539 20.9323 21.1697 17.7783 25 17.7783C28.8303 17.7783 31.9461 20.9323 31.9461 24.8096C31.9461 28.6868 28.8303 31.8408 25 31.8408Z" fill="#BBE0F2"/>
</svg>
