<svg width="300" height="300" viewBox="0 0 300 300" fill="none" xmlns="http://www.w3.org/2000/svg">
<path d="M0.519765 147.544C0.524208 147.268 0.304424 147.041 0.0287007 147.036C0.0539753 145.732 0.0958914 144.432 0.154246 143.136C0.42971 143.149 0.663662 142.936 0.676981 142.661C0.756114 141.024 0.861579 139.394 0.99296 137.771C1.01522 137.496 0.810588 137.255 0.535762 137.232C0.645409 135.931 0.771654 134.635 0.914288 133.344C1.18833 133.375 1.4356 133.178 1.46681 132.904C1.65172 131.279 1.86266 129.663 2.0992 128.055C2.13935 127.782 1.95087 127.528 1.67812 127.488C1.87269 126.195 2.08376 124.907 2.31111 123.626C2.58255 123.674 2.84219 123.494 2.89128 123.223C3.18205 121.615 3.49853 120.016 3.84029 118.426C3.89828 118.156 3.72688 117.891 3.45738 117.832C3.736 116.557 4.03083 115.288 4.34166 114.025C4.60931 114.092 4.88025 113.929 4.94709 113.661C5.34328 112.075 5.76482 110.498 6.21125 108.932C6.28688 108.667 6.13335 108.39 5.86829 108.314C6.23007 107.061 6.60774 105.815 7.00109 104.575C7.26378 104.659 7.54487 104.515 7.6292 104.252C8.12863 102.696 8.65284 101.152 9.20137 99.6193C9.29432 99.3596 9.15934 99.0737 8.89986 98.9803C9.34381 97.7528 9.80333 96.5327 10.2782 95.3203C10.5348 95.4212 10.8248 95.2954 10.9262 95.0389C11.5267 93.5206 12.1514 92.0145 12.7997 90.5211C12.9096 90.2681 12.7937 89.9739 12.5409 89.8637C13.0643 88.669 13.6028 87.4825 14.1562 86.3044C14.4056 86.422 14.7033 86.3155 14.8214 86.0662C15.5207 84.5902 16.2435 83.1275 16.9893 81.6786C17.1155 81.4333 17.0193 81.1321 16.7743 81.0056C17.3748 79.8483 17.99 78.6999 18.6195 77.5605C18.8606 77.6943 19.1647 77.6076 19.2989 77.3666C20.093 75.9406 20.9098 74.529 21.7488 73.1322C21.8909 72.8957 21.8145 72.5889 21.5784 72.4465C22.2536 71.3307 22.943 70.2244 23.6463 69.1279C23.8782 69.2772 24.1872 69.2105 24.3369 68.9788C25.2225 67.6082 26.1299 66.2529 27.0586 64.9136C27.2158 64.6869 27.1596 64.3758 26.9333 64.2183C27.6795 63.1496 28.4394 62.0912 29.2125 61.0431C29.4342 61.2072 29.7469 61.1609 29.9114 60.9394C30.8845 59.6294 31.8786 58.3358 32.8931 57.0593C33.0647 56.8433 33.029 56.5292 32.8134 56.3573C33.6277 55.3396 34.4549 54.3328 35.2949 53.3371C35.5054 53.5152 35.8204 53.4893 35.999 53.2791C37.0549 52.0357 38.1309 50.8098 39.2263 49.602C39.4116 49.3976 39.3964 49.0819 39.1924 48.8963C40.0711 47.9338 40.9622 46.9827 41.8654 46.0435C42.0638 46.2349 42.3799 46.2296 42.5718 46.0314C43.7062 44.8595 44.8595 43.7062 46.0314 42.5718C46.2296 42.3799 46.235 42.0638 46.0435 41.8654C46.9828 40.9622 47.9338 40.0711 48.8963 39.1924C49.0819 39.3963 49.3976 39.4116 49.602 39.2262C50.8099 38.1309 52.0357 37.0549 53.2791 35.999C53.4894 35.8204 53.5152 35.5053 53.3371 35.2949C54.3328 34.4549 55.3396 33.6277 56.3573 32.8134C56.5292 33.029 56.8433 33.0647 57.0593 32.8931C58.3359 31.8786 59.6294 30.8845 60.9394 29.9114C61.1609 29.7469 61.2072 29.4342 61.0431 29.2125C62.0912 28.4394 63.1496 27.6795 64.2183 26.9333C64.3758 27.1596 64.6869 27.2158 64.9136 27.0586C66.2529 26.1299 67.6082 25.2225 68.9788 24.3369C69.2105 24.1872 69.2772 23.8782 69.1279 23.6463C70.2244 22.943 71.3307 22.2536 72.4465 21.5784C72.5889 21.8145 72.8957 21.8909 73.1322 21.7488C74.529 20.9098 75.9406 20.093 77.3666 19.2989C77.6076 19.1647 77.6943 18.8606 77.5605 18.6195C78.6999 17.99 79.8483 17.3748 81.0056 16.7743C81.1322 17.0192 81.4333 17.1155 81.6786 16.9893C83.1275 16.2435 84.5903 15.5207 86.0663 14.8214C86.3156 14.7033 86.422 14.4056 86.3044 14.1562C87.4825 13.6028 88.6691 13.0643 89.8637 12.5409C89.9739 12.7937 90.2681 12.9096 90.5211 12.7997C92.0146 12.1514 93.5207 11.5267 95.0389 10.9262C95.2954 10.8248 95.4213 10.5347 95.3203 10.2782C96.5327 9.80331 97.7528 9.3438 98.9804 8.89985C99.0737 9.15933 99.3596 9.2943 99.6193 9.20136C101.152 8.65283 102.697 8.12862 104.252 7.62919C104.515 7.54486 104.659 7.26377 104.575 7.00107C105.815 6.60773 107.061 6.23005 108.314 5.86827C108.39 6.13334 108.667 6.28686 108.932 6.21124C110.498 5.7648 112.075 5.34327 113.661 4.94707C113.929 4.88024 114.092 4.6093 114.025 4.34165C115.288 4.03082 116.557 3.73598 117.832 3.45737C117.891 3.72687 118.156 3.89827 118.426 3.84028C120.016 3.49852 121.615 3.18204 123.223 2.89127C123.494 2.84219 123.674 2.58254 123.626 2.31111C124.908 2.08375 126.195 1.87268 127.488 1.67811C127.528 1.95087 127.782 2.13934 128.055 2.0992C129.663 1.86265 131.28 1.65171 132.904 1.4668C133.178 1.4356 133.375 1.18832 133.344 0.914281C134.635 0.771648 135.931 0.645403 137.232 0.535757C137.255 0.810583 137.496 1.01521 137.771 0.992955C139.394 0.861575 141.024 0.75611 142.661 0.676978C142.937 0.663659 143.149 0.429707 143.136 0.154243C144.432 0.0958891 145.732 0.0539736 147.036 0.0286995C147.041 0.304423 147.268 0.524207 147.544 0.519764C148.361 0.506605 149.18 0.5 150 0.5C150.82 0.5 151.639 0.506605 152.456 0.519765C152.732 0.524208 152.959 0.304424 152.964 0.0287007C154.268 0.0539752 155.568 0.0958913 156.864 0.154246C156.851 0.42971 157.064 0.663662 157.339 0.676981C158.976 0.756114 160.606 0.861579 162.229 0.992959C162.504 1.01522 162.745 0.810588 162.768 0.535762C164.069 0.645409 165.365 0.771654 166.656 0.914288C166.625 1.18833 166.822 1.4356 167.096 1.46681C168.721 1.65172 170.337 1.86266 171.945 2.0992C172.218 2.13935 172.472 1.95087 172.512 1.67812C173.805 1.87269 175.092 2.08376 176.374 2.31111C176.326 2.58255 176.506 2.84219 176.777 2.89128C178.385 3.18205 179.984 3.49853 181.574 3.84029C181.844 3.89828 182.109 3.72688 182.168 3.45738C183.443 3.73599 184.712 4.03083 185.975 4.34166C185.908 4.60931 186.071 4.88025 186.339 4.94709C187.925 5.34328 189.502 5.76481 191.068 6.21125C191.333 6.28687 191.61 6.13335 191.686 5.86828C192.939 6.23006 194.185 6.60774 195.425 7.00109C195.341 7.26378 195.485 7.54487 195.748 7.6292C197.304 8.12862 198.848 8.65283 200.381 9.20137C200.64 9.29431 200.926 9.15934 201.02 8.89986C202.247 9.34381 203.467 9.80333 204.68 10.2782C204.579 10.5348 204.705 10.8248 204.961 10.9262C206.479 11.5267 207.985 12.1514 209.479 12.7997C209.732 12.9096 210.026 12.7937 210.136 12.5409C211.331 13.0643 212.517 13.6028 213.696 14.1562C213.578 14.4056 213.684 14.7033 213.934 14.8214C215.41 15.5207 216.872 16.2435 218.321 16.9893C218.567 17.1155 218.868 17.0192 218.994 16.7743C220.152 17.3748 221.3 17.99 222.439 18.6195C222.306 18.8606 222.392 19.1647 222.633 19.2989C224.059 20.093 225.471 20.9098 226.868 21.7488C227.104 21.8909 227.411 21.8145 227.553 21.5783C228.669 22.2536 229.776 22.943 230.872 23.6463C230.723 23.8782 230.789 24.1872 231.021 24.3369C232.392 25.2225 233.747 26.1299 235.086 27.0586C235.313 27.2157 235.624 27.1596 235.782 26.9333C236.85 27.6795 237.909 28.4394 238.957 29.2125C238.793 29.4342 238.839 29.7469 239.061 29.9114C240.371 30.8845 241.664 31.8786 242.941 32.8931C243.157 33.0647 243.471 33.029 243.643 32.8134C244.66 33.6277 245.667 34.4549 246.663 35.2949C246.485 35.5053 246.511 35.8204 246.721 35.999C247.964 37.0549 249.19 38.1309 250.398 39.2263C250.602 39.4116 250.918 39.3964 251.104 39.1924C252.066 40.0711 253.017 40.9622 253.957 41.8654C253.765 42.0638 253.77 42.3799 253.969 42.5718C255.14 43.7062 256.294 44.8595 257.428 46.0314C257.62 46.2296 257.936 46.235 258.135 46.0435C259.038 46.9828 259.929 47.9338 260.808 48.8963C260.604 49.0819 260.588 49.3976 260.774 49.602C261.869 50.8099 262.945 52.0357 264.001 53.2791C264.18 53.4893 264.495 53.5152 264.705 53.3371C265.545 54.3328 266.372 55.3396 267.187 56.3573C266.971 56.5292 266.935 56.8433 267.107 57.0593C268.121 58.3359 269.115 59.6294 270.089 60.9394C270.253 61.1609 270.566 61.2072 270.787 61.0431C271.561 62.0912 272.32 63.1496 273.067 64.2183C272.84 64.3758 272.784 64.6869 272.941 64.9136C273.87 66.2529 274.777 67.6082 275.663 68.9788C275.813 69.2105 276.122 69.2772 276.354 69.1279C277.057 70.2244 277.746 71.3307 278.422 72.4465C278.185 72.5889 278.109 72.8957 278.251 73.1322C279.09 74.529 279.907 75.9406 280.701 77.3666C280.835 77.6076 281.139 77.6943 281.38 77.5605C282.01 78.6999 282.625 79.8483 283.226 81.0056C282.981 81.1322 282.884 81.4333 283.011 81.6786C283.757 83.1275 284.479 84.5903 285.179 86.0663C285.297 86.3156 285.594 86.422 285.844 86.3044C286.397 87.4825 286.936 88.6691 287.459 89.8637C287.206 89.9739 287.09 90.2681 287.2 90.5211C287.849 92.0146 288.473 93.5207 289.074 95.0389C289.175 95.2954 289.465 95.4213 289.722 95.3203C290.197 96.5327 290.656 97.7528 291.1 98.9804C290.841 99.0737 290.706 99.3596 290.799 99.6193C291.347 101.152 291.871 102.697 292.371 104.252C292.455 104.515 292.736 104.659 292.999 104.575C293.392 105.815 293.77 107.061 294.132 108.314C293.867 108.39 293.713 108.667 293.789 108.932C294.235 110.498 294.657 112.075 295.053 113.661C295.12 113.929 295.391 114.092 295.658 114.025C295.969 115.288 296.264 116.557 296.543 117.832C296.273 117.891 296.102 118.156 296.16 118.426C296.501 120.016 296.818 121.615 297.109 123.223C297.158 123.494 297.417 123.674 297.689 123.626C297.916 124.908 298.127 126.195 298.322 127.488C298.049 127.528 297.861 127.782 297.901 128.055C298.137 129.663 298.348 131.28 298.533 132.904C298.564 133.178 298.812 133.375 299.086 133.344C299.228 134.635 299.355 135.931 299.464 137.232C299.189 137.255 298.985 137.496 299.007 137.771C299.138 139.394 299.244 141.024 299.323 142.661C299.336 142.937 299.57 143.149 299.846 143.136C299.904 144.432 299.946 145.732 299.971 147.036C299.696 147.041 299.476 147.268 299.48 147.544C299.493 148.361 299.5 149.18 299.5 150C299.5 150.82 299.493 151.639 299.48 152.456C299.476 152.732 299.696 152.959 299.971 152.964C299.946 154.268 299.904 155.568 299.846 156.864C299.57 156.851 299.336 157.064 299.323 157.339C299.244 158.976 299.138 160.606 299.007 162.229C298.985 162.504 299.189 162.745 299.464 162.768C299.355 164.069 299.228 165.365 299.086 166.656C298.812 166.625 298.564 166.822 298.533 167.096C298.348 168.721 298.137 170.337 297.901 171.945C297.861 172.218 298.049 172.472 298.322 172.512C298.127 173.805 297.916 175.092 297.689 176.374C297.417 176.326 297.158 176.506 297.109 176.777C296.818 178.385 296.501 179.984 296.16 181.574C296.102 181.844 296.273 182.109 296.543 182.168C296.264 183.443 295.969 184.712 295.658 185.975C295.391 185.908 295.12 186.071 295.053 186.339C294.657 187.925 294.235 189.502 293.789 191.068C293.713 191.333 293.867 191.61 294.132 191.686C293.77 192.939 293.392 194.185 292.999 195.425C292.736 195.341 292.455 195.485 292.371 195.748C291.871 197.304 291.347 198.848 290.799 200.381C290.706 200.64 290.841 200.926 291.1 201.02C290.656 202.247 290.197 203.467 289.722 204.68C289.465 204.579 289.175 204.705 289.074 204.961C288.473 206.479 287.849 207.985 287.2 209.479C287.09 209.732 287.206 210.026 287.459 210.136C286.936 211.331 286.397 212.517 285.844 213.696C285.594 213.578 285.297 213.684 285.179 213.934C284.479 215.41 283.757 216.872 283.011 218.321C282.884 218.567 282.981 218.868 283.226 218.994C282.625 220.152 282.01 221.3 281.38 222.439C281.139 222.306 280.835 222.392 280.701 222.633C279.907 224.059 279.09 225.471 278.251 226.868C278.109 227.104 278.185 227.411 278.422 227.553C277.746 228.669 277.057 229.776 276.354 230.872C276.122 230.723 275.813 230.789 275.663 231.021C274.777 232.392 273.87 233.747 272.941 235.086C272.784 235.313 272.84 235.624 273.067 235.782C272.32 236.85 271.561 237.909 270.787 238.957C270.566 238.793 270.253 238.839 270.089 239.061C269.115 240.371 268.121 241.664 267.107 242.941C266.935 243.157 266.971 243.471 267.187 243.643C266.372 244.66 265.545 245.667 264.705 246.663C264.495 246.485 264.18 246.511 264.001 246.721C262.945 247.964 261.869 249.19 260.774 250.398C260.588 250.602 260.604 250.918 260.808 251.104C259.929 252.066 259.038 253.017 258.135 253.957C257.936 253.765 257.62 253.77 257.428 253.969C256.294 255.14 255.14 256.294 253.969 257.428C253.77 257.62 253.765 257.936 253.957 258.135C253.017 259.038 252.066 259.929 251.104 260.808C250.918 260.604 250.602 260.588 250.398 260.774C249.19 261.869 247.964 262.945 246.721 264.001C246.511 264.18 246.485 264.495 246.663 264.705C245.667 265.545 244.66 266.372 243.643 267.187C243.471 266.971 243.157 266.935 242.941 267.107C241.664 268.121 240.371 269.115 239.061 270.089C238.839 270.253 238.793 270.566 238.957 270.787C237.909 271.561 236.85 272.32 235.782 273.067C235.624 272.84 235.313 272.784 235.086 272.941C233.747 273.87 232.392 274.777 231.021 275.663C230.789 275.813 230.723 276.122 230.872 276.354C229.776 277.057 228.669 277.746 227.553 278.422C227.411 278.185 227.104 278.109 226.868 278.251C225.471 279.09 224.059 279.907 222.633 280.701C222.392 280.835 222.306 281.139 222.439 281.38C221.3 282.01 220.152 282.625 218.994 283.226C218.868 282.981 218.567 282.884 218.321 283.011C216.872 283.757 215.41 284.479 213.934 285.179C213.684 285.297 213.578 285.594 213.696 285.844C212.517 286.397 211.331 286.936 210.136 287.459C210.026 287.206 209.732 287.09 209.479 287.2C207.985 287.849 206.479 288.473 204.961 289.074C204.705 289.175 204.579 289.465 204.68 289.722C203.467 290.197 202.247 290.656 201.02 291.1C200.926 290.841 200.64 290.706 200.381 290.799C198.848 291.347 197.303 291.871 195.748 292.371C195.485 292.455 195.341 292.736 195.425 292.999C194.185 293.392 192.939 293.77 191.686 294.132C191.61 293.867 191.333 293.713 191.068 293.789C189.502 294.235 187.925 294.657 186.339 295.053C186.071 295.12 185.908 295.391 185.975 295.658C184.712 295.969 183.443 296.264 182.168 296.543C182.109 296.273 181.844 296.102 181.574 296.16C179.984 296.501 178.385 296.818 176.777 297.109C176.506 297.158 176.326 297.417 176.374 297.689C175.092 297.916 173.805 298.127 172.512 298.322C172.472 298.049 172.218 297.861 171.945 297.901C170.337 298.137 168.72 298.348 167.096 298.533C166.822 298.564 166.625 298.812 166.656 299.086C165.365 299.228 164.069 299.355 162.768 299.464C162.745 299.189 162.504 298.985 162.229 299.007C160.606 299.138 158.976 299.244 157.339 299.323C157.063 299.336 156.851 299.57 156.864 299.846C155.568 299.904 154.268 299.946 152.964 299.971C152.959 299.696 152.732 299.476 152.456 299.48C151.639 299.493 150.82 299.5 150 299.5C149.18 299.5 148.361 299.493 147.544 299.48C147.268 299.476 147.041 299.696 147.036 299.971C145.732 299.946 144.432 299.904 143.136 299.846C143.149 299.57 142.936 299.336 142.661 299.323C141.024 299.244 139.394 299.138 137.771 299.007C137.496 298.985 137.255 299.189 137.232 299.464C135.931 299.355 134.635 299.228 133.344 299.086C133.375 298.812 133.178 298.564 132.904 298.533C131.279 298.348 129.663 298.137 128.055 297.901C127.782 297.861 127.528 298.049 127.488 298.322C126.195 298.127 124.907 297.916 123.626 297.689C123.674 297.417 123.494 297.158 123.223 297.109C121.615 296.818 120.016 296.501 118.426 296.16C118.156 296.102 117.891 296.273 117.832 296.543C116.557 296.264 115.288 295.969 114.025 295.658C114.092 295.391 113.929 295.12 113.661 295.053C112.075 294.657 110.498 294.235 108.932 293.789C108.667 293.713 108.39 293.867 108.314 294.132C107.061 293.77 105.815 293.392 104.575 292.999C104.659 292.736 104.515 292.455 104.252 292.371C102.696 291.871 101.152 291.347 99.6193 290.799C99.3596 290.706 99.0737 290.841 98.9803 291.1C97.7528 290.656 96.5327 290.197 95.3203 289.722C95.4212 289.465 95.2954 289.175 95.0389 289.074C93.5206 288.473 92.0145 287.849 90.5211 287.2C90.2681 287.09 89.9739 287.206 89.8637 287.459C88.669 286.936 87.4825 286.397 86.3044 285.844C86.422 285.594 86.3155 285.297 86.0662 285.179C84.5902 284.479 83.1275 283.757 81.6786 283.011C81.4333 282.884 81.1321 282.981 81.0056 283.226C79.8483 282.625 78.6999 282.01 77.5605 281.38C77.6943 281.139 77.6076 280.835 77.3666 280.701C75.9406 279.907 74.529 279.09 73.1322 278.251C72.8957 278.109 72.5889 278.185 72.4465 278.422C71.3307 277.746 70.2244 277.057 69.1279 276.354C69.2772 276.122 69.2105 275.813 68.9788 275.663C67.6082 274.777 66.2529 273.87 64.9136 272.941C64.6869 272.784 64.3758 272.84 64.2183 273.067C63.1496 272.32 62.0912 271.561 61.0431 270.787C61.2072 270.566 61.1608 270.253 60.9394 270.089C59.6294 269.115 58.3358 268.121 57.0593 267.107C56.8433 266.935 56.5292 266.971 56.3573 267.187C55.3396 266.372 54.3328 265.545 53.337 264.705C53.5152 264.495 53.4893 264.18 53.2791 264.001C52.0357 262.945 50.8098 261.869 49.602 260.774C49.3976 260.588 49.0819 260.604 48.8963 260.808C47.9338 259.929 46.9827 259.038 46.0435 258.135C46.2349 257.936 46.2296 257.62 46.0314 257.428C44.8595 256.294 43.7062 255.14 42.5718 253.969C42.3799 253.77 42.0638 253.765 41.8654 253.957C40.9622 253.017 40.0711 252.066 39.1924 251.104C39.3963 250.918 39.4116 250.602 39.2262 250.398C38.1309 249.19 37.0549 247.964 35.999 246.721C35.8204 246.511 35.5053 246.485 35.2949 246.663C34.4549 245.667 33.6277 244.66 32.8134 243.643C33.029 243.471 33.0647 243.157 32.8931 242.941C31.8786 241.664 30.8845 240.371 29.9114 239.061C29.7469 238.839 29.4342 238.793 29.2125 238.957C28.4394 237.909 27.6795 236.85 26.9333 235.782C27.1596 235.624 27.2158 235.313 27.0586 235.086C26.1299 233.747 25.2225 232.392 24.3369 231.021C24.1872 230.789 23.8782 230.723 23.6463 230.872C22.943 229.776 22.2536 228.669 21.5784 227.553C21.8145 227.411 21.8909 227.104 21.7488 226.868C20.9098 225.471 20.093 224.059 19.2989 222.633C19.1647 222.392 18.8606 222.306 18.6195 222.439C17.99 221.3 17.3748 220.152 16.7743 218.994C17.0192 218.868 17.1155 218.567 16.9893 218.321C16.2435 216.872 15.5207 215.41 14.8214 213.934C14.7033 213.684 14.4056 213.578 14.1562 213.696C13.6028 212.517 13.0643 211.331 12.5409 210.136C12.7937 210.026 12.9096 209.732 12.7997 209.479C12.1514 207.985 11.5267 206.479 10.9262 204.961C10.8248 204.705 10.5347 204.579 10.2782 204.68C9.80331 203.467 9.3438 202.247 8.89985 201.02C9.15933 200.926 9.2943 200.64 9.20136 200.381C8.65283 198.848 8.12862 197.303 7.62919 195.748C7.54486 195.485 7.26377 195.341 7.00108 195.425C6.60773 194.185 6.23005 192.939 5.86828 191.686C6.13334 191.61 6.28686 191.333 6.21124 191.068C5.7648 189.502 5.34327 187.925 4.94707 186.339C4.88024 186.071 4.6093 185.908 4.34165 185.975C4.03082 184.712 3.73598 183.443 3.45737 182.168C3.72687 182.109 3.89827 181.844 3.84028 181.574C3.49852 179.984 3.18204 178.385 2.89127 176.777C2.84219 176.506 2.58254 176.326 2.31111 176.374C2.08375 175.092 1.87268 173.805 1.67811 172.512C1.95087 172.472 2.13934 172.218 2.0992 171.945C1.86265 170.337 1.65171 168.72 1.4668 167.096C1.4356 166.822 1.18832 166.625 0.914281 166.656C0.771648 165.365 0.645403 164.069 0.535757 162.768C0.810583 162.745 1.01521 162.504 0.992955 162.229C0.861575 160.606 0.75611 158.976 0.676978 157.339C0.663659 157.063 0.429707 156.851 0.154243 156.864C0.0958891 155.568 0.0539735 154.268 0.0286995 152.964C0.304423 152.959 0.524207 152.732 0.519764 152.456C0.506605 151.639 0.5 150.82 0.5 150C0.5 149.18 0.506605 148.361 0.519765 147.544Z" stroke="#C19677" stroke-miterlimit="3.8637" stroke-linecap="round" stroke-linejoin="round" stroke-dasharray="5 5"/>
</svg>
