<svg width="43" height="43" viewBox="0 0 43 43" fill="none" xmlns="http://www.w3.org/2000/svg">
<path d="M21.8872 42.4938C33.4759 42.4938 42.8704 33.0993 42.8704 21.5106C42.8704 9.92185 33.4759 0.527344 21.8872 0.527344C10.2985 0.527344 0.904022 9.92185 0.904022 21.5106C0.904022 33.0993 10.2985 42.4938 21.8872 42.4938Z" fill="url(#paint0_linear)"/>
<path d="M18.0403 31.1283C17.3605 31.1283 17.476 30.8716 17.2416 30.2244L15.2426 23.6453L30.6302 14.5166" fill="#C8DAEA"/>
<path d="M18.0403 31.1278C18.5649 31.1278 18.7966 30.8879 19.0894 30.6032L21.8872 27.8828L18.3973 25.7783" fill="#A9C9DD"/>
<path d="M18.397 25.7795L26.8533 32.0271C27.8182 32.5595 28.5147 32.2839 28.755 31.1312L32.1972 14.9106C32.5496 13.4977 31.6586 12.8569 30.7354 13.276L10.5233 21.0697C9.14368 21.6231 9.15172 22.3928 10.2719 22.7358L15.4587 24.3547L27.4669 16.7789C28.0338 16.4351 28.5541 16.6199 28.127 16.9989" fill="url(#paint1_linear)"/>
<defs>
<linearGradient id="paint0_linear" x1="16.6435" y1="2.27734" x2="6.15192" y2="26.7564" gradientUnits="userSpaceOnUse">
<stop stop-color="#37AEE2"/>
<stop offset="1" stop-color="#1E96C8"/>
</linearGradient>
<linearGradient id="paint1_linear" x1="19.2605" y1="22.8001" x2="21.5025" y2="30.0524" gradientUnits="userSpaceOnUse">
<stop stop-color="#EFF7FC"/>
<stop offset="1" stop-color="white"/>
</linearGradient>
</defs>
</svg>
