<svg width="43" height="42" viewBox="0 0 43 42" fill="none" xmlns="http://www.w3.org/2000/svg">
<path d="M21.8872 0.0218506C33.4759 0.0218506 42.8704 9.41636 42.8704 21.0051C42.8704 32.5938 33.4759 41.9883 21.8872 41.9883C10.2985 41.9883 0.904022 32.5938 0.904022 21.0051C0.904022 9.41636 10.2985 0.0218506 21.8872 0.0218506Z" fill="#7F4DA0"/>
<path d="M26.5418 18.7938C26.4556 18.0936 26.2404 17.5438 25.8582 17.0568C25.3619 16.4297 24.7277 16.0542 23.7887 15.8315C23.1768 15.683 22.9296 15.7 22.7083 15.9022C22.5021 16.0916 22.4619 16.4713 22.6194 16.7172C22.7302 16.8956 22.858 16.9596 23.2135 17.0293C23.6869 17.1164 24.014 17.2295 24.3116 17.3996C24.9432 17.7643 25.2373 18.335 25.2688 19.259C25.2836 19.6928 25.321 19.8262 25.4725 19.98C25.7534 20.2613 26.2532 20.2066 26.4652 19.87C26.543 19.7432 26.5548 19.6879 26.5631 19.3934C26.5685 19.211 26.5606 18.9395 26.5418 18.7938Z" fill="white"/>
<path d="M29.0157 19.5833C28.8909 17.4381 28.0518 15.7121 26.5502 14.4978C25.7041 13.8155 24.6814 13.3463 23.5604 13.1181C23.1497 13.0365 22.3937 12.9703 22.264 13.0082C22.1416 13.0432 21.9685 13.1757 21.8913 13.2956C21.8097 13.4255 21.7913 13.7157 21.8609 13.8836C21.9733 14.1642 22.1823 14.2633 22.7676 14.3145C23.67 14.3935 24.6007 14.7105 25.3039 15.1798C26.1067 15.7142 26.7449 16.4451 27.1578 17.304C27.5145 18.0419 27.7339 19.1054 27.7278 20.0577C27.7258 20.4022 27.779 20.5967 27.9175 20.7389C28.1266 20.9575 28.4314 21.0054 28.7003 20.8601C28.9984 20.7034 29.0681 20.4282 29.0157 19.5833Z" fill="white"/>
<path d="M31.5791 27.963C31.5378 27.8416 31.4414 27.6544 31.3726 27.5469C30.9388 26.8882 28.608 25.054 27.4443 24.4541C26.7799 24.1109 26.2876 23.9965 25.9227 24.1039C25.5302 24.2149 25.3236 24.3986 24.666 25.2204C24.401 25.5498 24.129 25.8584 24.0567 25.9069C23.8776 26.0317 23.5265 26.1323 23.2786 26.1323C22.7036 26.1288 21.6605 25.7544 20.8583 25.262C20.2352 24.8806 19.4365 24.1976 18.8236 23.5215C18.1006 22.7275 17.6084 22.0271 17.2193 21.2365C16.7167 20.2206 16.5893 19.6 16.7993 19.1458C16.8509 19.0313 16.9198 18.91 16.9507 18.8718C16.9817 18.8372 17.3054 18.5702 17.6634 18.2789C18.3657 17.7173 18.4793 17.589 18.6102 17.2041C18.7754 16.7152 18.7307 16.2159 18.4759 15.7132C18.2797 15.3318 17.7667 14.4997 17.3949 13.9622C16.9026 13.2549 15.6769 11.7432 15.4324 11.5386C14.9918 11.178 14.4272 11.1156 13.804 11.3583C13.1465 11.6149 11.9139 12.6135 11.3872 13.3104C10.9121 13.9414 10.7297 14.3887 10.7021 14.9781C10.678 15.4635 10.7193 15.6646 10.9741 16.2853C12.9675 21.1533 15.942 25.0401 20.0286 28.126C22.1631 29.7382 24.3768 30.9657 26.6732 31.8048C28.0124 32.2936 28.5942 32.3179 29.2793 31.9157C29.5685 31.7423 30.2846 31.0038 30.684 30.4664C31.345 29.5718 31.5895 29.1592 31.6583 28.8298C31.7065 28.6045 31.6686 28.2127 31.5791 27.963Z" fill="white"/>
<path d="M31.5341 20.0757C31.4893 18.8623 31.285 17.867 30.859 16.7573C30.4384 15.6657 30.0127 14.9534 29.2088 13.99C28.4488 13.0866 27.8584 12.5709 26.9222 11.9967C25.616 11.1968 24.0263 10.6674 22.2448 10.4448C21.6372 10.367 21.4998 10.3726 21.3134 10.4969C20.9522 10.7325 20.957 11.3202 21.3194 11.5522C21.4393 11.626 21.5457 11.6529 22.0317 11.7165C22.7777 11.817 23.2574 11.9116 23.8266 12.0669C26.0587 12.6771 27.7752 13.9243 28.9227 15.7757C29.883 17.3189 30.2816 18.8621 30.225 20.8331C30.2054 21.4995 30.2196 21.6167 30.3215 21.7768C30.5166 22.0753 31.031 22.1343 31.2949 21.8867C31.4591 21.7358 31.49 21.6224 31.5224 21.0521C31.5379 20.7546 31.5412 20.3154 31.5341 20.0757Z" fill="white"/>
</svg>
