<svg width="43" height="43" viewBox="0 0 43 43" fill="none" xmlns="http://www.w3.org/2000/svg">
<path d="M21.8872 42.7408C33.4759 42.7408 42.8704 33.3463 42.8704 21.7576C42.8704 10.1689 33.4759 0.774414 21.8872 0.774414C10.2985 0.774414 0.904022 10.1689 0.904022 21.7576C0.904022 33.3463 10.2985 42.7408 21.8872 42.7408Z" fill="#25D366"/>
<path fill-rule="evenodd" clip-rule="evenodd" d="M22.5789 33.4323H22.5737C20.4855 33.4315 18.4336 32.9076 16.6112 31.9135L9.99677 33.6486L11.7669 27.183C10.675 25.2908 10.1004 23.1443 10.1014 20.9453C10.1041 14.0657 15.7014 8.46875 22.5788 8.46875C25.9166 8.47021 29.0494 9.76959 31.4051 12.1281C33.7608 14.4864 35.0574 17.6212 35.0561 20.9551C35.0533 27.833 29.4582 33.4294 22.5789 33.4323ZM16.9176 29.6547L17.2963 29.8795C18.8886 30.8243 20.7138 31.3243 22.5747 31.325H22.5789C28.2949 31.325 32.9471 26.6727 32.9494 20.9543C32.9505 18.1833 31.8728 15.5778 29.9148 13.6175C27.9568 11.6572 25.353 10.5771 22.583 10.5762C16.8626 10.5762 12.2103 15.228 12.208 20.9459C12.2072 22.9055 12.7555 24.8139 13.7936 26.465L14.0402 26.8574L12.9926 30.6843L16.9176 29.6547ZM28.438 23.6419C28.6553 23.7469 28.8021 23.8179 28.8648 23.9225C28.9427 24.0526 28.9427 24.6768 28.6831 25.4052C28.4232 26.1334 27.1777 26.798 26.5786 26.8875C26.0415 26.9678 25.3618 27.0013 24.615 26.7639C24.1622 26.6203 23.5815 26.4285 22.8377 26.1072C19.9148 24.8452 17.9396 22.0122 17.5664 21.4769C17.5403 21.4395 17.522 21.4133 17.5118 21.3997L17.5094 21.3964C17.3447 21.1766 16.2388 19.7014 16.2388 18.1746C16.2388 16.7385 16.9442 15.9858 17.2689 15.6393C17.2912 15.6156 17.3117 15.5938 17.33 15.5737C17.6157 15.2616 17.9535 15.1836 18.1614 15.1836C18.3692 15.1836 18.5772 15.1855 18.7589 15.1946C18.7813 15.1957 18.8046 15.1956 18.8287 15.1955C19.0104 15.1944 19.2369 15.1931 19.4603 15.7298C19.5462 15.9362 19.6719 16.2421 19.8044 16.5648C20.0728 17.2181 20.3694 17.9402 20.4216 18.0447C20.4995 18.2007 20.5515 18.3828 20.4475 18.5909C20.4319 18.6222 20.4175 18.6517 20.4037 18.6798C20.3257 18.8391 20.2683 18.9563 20.1358 19.111C20.0837 19.1718 20.03 19.2372 19.9762 19.3027C19.8689 19.4334 19.7616 19.5641 19.6681 19.6572C19.5121 19.8126 19.3496 19.9813 19.5315 20.2935C19.7133 20.6056 20.339 21.6265 21.2658 22.4532C22.2622 23.3419 23.1281 23.7175 23.567 23.9078C23.6527 23.945 23.7221 23.9751 23.773 24.0005C24.0846 24.1567 24.2665 24.1306 24.4484 23.9225C24.6303 23.7145 25.2277 23.0121 25.4355 22.7001C25.6433 22.3881 25.8513 22.4401 26.137 22.5441C26.4228 22.6482 27.9556 23.4023 28.2674 23.5583C28.3282 23.5889 28.3852 23.6164 28.438 23.6419Z" fill="#FDFDFD"/>
</svg>
