<svg width="22" height="24" viewBox="0 0 22 24" fill="none" xmlns="http://www.w3.org/2000/svg">
<path d="M19.6843 8.55337C19.3325 8.34229 18.8698 8.44554 18.6506 8.78407C18.4314 9.12259 18.5387 9.56785 18.8903 9.77882C19.7086 10.2699 20.197 11.1171 20.197 12.0452C20.197 12.9733 19.7086 13.8205 18.8903 14.3116L6.58361 21.6965C5.71541 22.2174 4.66302 22.243 3.76856 21.7654C2.87398 21.2876 2.33991 20.4146 2.33991 19.43V4.66029C2.33991 3.67577 2.87398 2.80268 3.76856 2.32492C4.66302 1.84728 5.71541 1.87292 6.58361 2.39388L13.7478 6.69287C14.0995 6.90371 14.5622 6.80058 14.7815 6.46218C15.0007 6.12377 14.8934 5.67839 14.5418 5.46743L7.37765 1.16855C6.04016 0.365989 4.41893 0.326156 3.04042 1.06229C1.66228 1.79831 0.839478 3.14337 0.839478 4.66029V19.4299C0.839478 20.9468 1.66228 22.2919 3.04054 23.0279C3.69704 23.3785 4.40843 23.5531 5.11831 23.5531C5.89873 23.5531 6.67727 23.342 7.37765 22.9217L19.6843 15.5368C20.9451 14.7802 21.6977 13.475 21.6977 12.0451C21.6977 10.6152 20.9451 9.30996 19.6843 8.55337Z" fill="#353535"/>
</svg>
